<svg xmlns="http://www.w3.org/2000/svg" xmlns:xlink="http://www.w3.org/1999/xlink" width="40" zoomAndPan="magnify" viewBox="0 0 30 30.000001" height="40" preserveAspectRatio="xMidYMid meet" version="1.0"><defs><clipPath id="d1d9f28acb"><path d="M 1 0.265625 L 29 0.265625 L 29 28.570312 L 1 28.570312 Z M 1 0.265625 " clip-rule="nonzero"/></clipPath><clipPath id="6aeea53a15"><path d="M 1.199219 14.417969 C 1.199219 12.597656 1.550781 10.84375 2.253906 9.164062 C 2.953125 7.480469 3.953125 5.996094 5.25 4.707031 C 6.546875 3.421875 8.039062 2.429688 9.734375 1.730469 C 11.425781 1.035156 13.191406 0.6875 15.023438 0.6875 C 16.855469 0.6875 18.621094 1.035156 20.3125 1.730469 C 22.007812 2.429688 23.503906 3.421875 24.796875 4.707031 C 26.09375 5.996094 27.09375 7.480469 27.796875 9.164062 C 28.496094 10.84375 28.847656 12.597656 28.847656 14.417969 C 28.847656 16.238281 28.496094 17.988281 27.796875 19.671875 C 27.09375 21.355469 26.09375 22.839844 24.796875 24.125 C 23.503906 25.414062 22.007812 26.40625 20.3125 27.101562 C 18.621094 27.796875 16.855469 28.148438 15.023438 28.148438 C 13.191406 28.148438 11.425781 27.796875 9.734375 27.101562 C 8.039062 26.40625 6.546875 25.414062 5.25 24.125 C 3.953125 22.839844 2.953125 21.355469 2.253906 19.671875 C 1.550781 17.988281 1.199219 16.238281 1.199219 14.417969 Z M 1.199219 14.417969 " clip-rule="nonzero"/></clipPath><clipPath id="c127ad0492"><path d="M 1 8 L 29 8 L 29 28.570312 L 1 28.570312 Z M 1 8 " clip-rule="nonzero"/></clipPath><clipPath id="6fb328b28d"><path d="M 1.199219 14.417969 C 1.199219 12.597656 1.550781 10.84375 2.253906 9.164062 C 2.953125 7.480469 3.953125 5.996094 5.25 4.707031 C 6.546875 3.421875 8.039062 2.429688 9.734375 1.730469 C 11.425781 1.035156 13.191406 0.6875 15.023438 0.6875 C 16.855469 0.6875 18.621094 1.035156 20.3125 1.730469 C 22.007812 2.429688 23.503906 3.421875 24.796875 4.707031 C 26.09375 5.996094 27.09375 7.480469 27.796875 9.164062 C 28.496094 10.84375 28.847656 12.597656 28.847656 14.417969 C 28.847656 16.238281 28.496094 17.988281 27.796875 19.671875 C 27.09375 21.355469 26.09375 22.839844 24.796875 24.125 C 23.503906 25.414062 22.007812 26.40625 20.3125 27.101562 C 18.621094 27.796875 16.855469 28.148438 15.023438 28.148438 C 13.191406 28.148438 11.425781 27.796875 9.734375 27.101562 C 8.039062 26.40625 6.546875 25.414062 5.25 24.125 C 3.953125 22.839844 2.953125 21.355469 2.253906 19.671875 C 1.550781 17.988281 1.199219 16.238281 1.199219 14.417969 Z M 1.199219 14.417969 " clip-rule="nonzero"/></clipPath><clipPath id="6b78088893"><path d="M 8 8 L 24 8 L 24 19 L 8 19 Z M 8 8 " clip-rule="nonzero"/></clipPath><clipPath id="58e5c9426b"><path d="M 1.199219 14.417969 C 1.199219 12.597656 1.550781 10.84375 2.253906 9.164062 C 2.953125 7.480469 3.953125 5.996094 5.25 4.707031 C 6.546875 3.421875 8.039062 2.429688 9.734375 1.730469 C 11.425781 1.035156 13.191406 0.6875 15.023438 0.6875 C 16.855469 0.6875 18.621094 1.035156 20.3125 1.730469 C 22.007812 2.429688 23.503906 3.421875 24.796875 4.707031 C 26.09375 5.996094 27.09375 7.480469 27.796875 9.164062 C 28.496094 10.84375 28.847656 12.597656 28.847656 14.417969 C 28.847656 16.238281 28.496094 17.988281 27.796875 19.671875 C 27.09375 21.355469 26.09375 22.839844 24.796875 24.125 C 23.503906 25.414062 22.007812 26.40625 20.3125 27.101562 C 18.621094 27.796875 16.855469 28.148438 15.023438 28.148438 C 13.191406 28.148438 11.425781 27.796875 9.734375 27.101562 C 8.039062 26.40625 6.546875 25.414062 5.25 24.125 C 3.953125 22.839844 2.953125 21.355469 2.253906 19.671875 C 1.550781 17.988281 1.199219 16.238281 1.199219 14.417969 Z M 1.199219 14.417969 " clip-rule="nonzero"/></clipPath><clipPath id="5d4ee189f5"><path d="M 1 0.265625 L 29 0.265625 L 29 28.570312 L 1 28.570312 Z M 1 0.265625 " clip-rule="nonzero"/></clipPath><clipPath id="e24f99b036"><path d="M 1.199219 14.417969 C 1.199219 12.597656 1.550781 10.84375 2.253906 9.164062 C 2.953125 7.480469 3.953125 5.996094 5.25 4.707031 C 6.546875 3.421875 8.039062 2.429688 9.734375 1.730469 C 11.425781 1.035156 13.191406 0.6875 15.023438 0.6875 C 16.855469 0.6875 18.621094 1.035156 20.3125 1.730469 C 22.007812 2.429688 23.503906 3.421875 24.796875 4.707031 C 26.09375 5.996094 27.09375 7.480469 27.796875 9.164062 C 28.496094 10.84375 28.847656 12.597656 28.847656 14.417969 C 28.847656 16.238281 28.496094 17.988281 27.796875 19.671875 C 27.09375 21.355469 26.09375 22.839844 24.796875 24.125 C 23.503906 25.414062 22.007812 26.40625 20.3125 27.101562 C 18.621094 27.796875 16.855469 28.148438 15.023438 28.148438 C 13.191406 28.148438 11.425781 27.796875 9.734375 27.101562 C 8.039062 26.40625 6.546875 25.414062 5.25 24.125 C 3.953125 22.839844 2.953125 21.355469 2.253906 19.671875 C 1.550781 17.988281 1.199219 16.238281 1.199219 14.417969 Z M 1.199219 14.417969 " clip-rule="nonzero"/></clipPath><clipPath id="96d03e1201"><path d="M 0.484375 0.265625 L 29.515625 0.265625 L 29.515625 28.570312 L 0.484375 28.570312 Z M 0.484375 0.265625 " clip-rule="nonzero"/></clipPath></defs><g clip-path="url(#d1d9f28acb)"><g clip-path="url(#6aeea53a15)"><path fill="#33c6f4" d="M 28.847656 14.417969 C 28.847656 15.320312 28.757812 16.210938 28.582031 17.097656 C 28.40625 17.980469 28.140625 18.839844 27.796875 19.671875 C 27.449219 20.503906 27.023438 21.296875 26.519531 22.046875 C 26.011719 22.792969 25.441406 23.488281 24.796875 24.125 C 24.15625 24.761719 23.457031 25.332031 22.703125 25.832031 C 21.949219 26.335938 21.152344 26.757812 20.3125 27.101562 C 19.476562 27.445312 18.609375 27.707031 17.71875 27.882812 C 16.832031 28.058594 15.929688 28.148438 15.023438 28.148438 C 14.117188 28.148438 13.21875 28.058594 12.328125 27.882812 C 11.4375 27.707031 10.574219 27.445312 9.734375 27.101562 C 8.894531 26.757812 8.097656 26.335938 7.34375 25.832031 C 6.589844 25.332031 5.890625 24.761719 5.25 24.125 C 4.605469 23.488281 4.035156 22.792969 3.53125 22.046875 C 3.027344 21.296875 2.601562 20.503906 2.253906 19.671875 C 1.90625 18.839844 1.644531 17.980469 1.464844 17.097656 C 1.289062 16.210938 1.199219 15.320312 1.199219 14.417969 C 1.199219 13.515625 1.289062 12.621094 1.464844 11.738281 C 1.644531 10.855469 1.90625 9.996094 2.253906 9.164062 C 2.601562 8.328125 3.027344 7.539062 3.53125 6.789062 C 4.035156 6.039062 4.605469 5.347656 5.25 4.707031 C 5.890625 4.070312 6.589844 3.5 7.34375 3 C 8.097656 2.5 8.894531 2.078125 9.734375 1.730469 C 10.574219 1.386719 11.4375 1.125 12.328125 0.949219 C 13.21875 0.773438 14.117188 0.6875 15.023438 0.6875 C 15.929688 0.6875 16.832031 0.773438 17.71875 0.949219 C 18.609375 1.125 19.476562 1.386719 20.3125 1.730469 C 21.152344 2.078125 21.949219 2.5 22.703125 3 C 23.457031 3.5 24.15625 4.070312 24.796875 4.707031 C 25.441406 5.347656 26.011719 6.039062 26.519531 6.789062 C 27.023438 7.539062 27.449219 8.328125 27.796875 9.164062 C 28.140625 9.996094 28.40625 10.855469 28.582031 11.738281 C 28.757812 12.621094 28.847656 13.515625 28.847656 14.417969 Z M 28.847656 14.417969 " fill-opacity="1" fill-rule="nonzero"/></g></g><g clip-path="url(#c127ad0492)"><g clip-path="url(#6fb328b28d)"><path fill="#1b447e" d="M 29.257812 20.097656 C 22.898438 17.261719 16.359375 9.285156 15.808594 8.921875 C 15.257812 8.554688 14.519531 9.011719 14.519531 9.011719 C 14.058594 8.28125 13.320312 9.105469 13.320312 9.105469 C 9.910156 14.867188 0.789062 20.371094 0.789062 20.371094 C 0.789062 20.371094 5.171875 28.371094 15.292969 28.371094 C 25.585938 28.371094 29.257812 20.097656 29.257812 20.097656 Z M 29.257812 20.097656 " fill-opacity="1" fill-rule="nonzero"/></g></g><g clip-path="url(#6b78088893)"><g clip-path="url(#58e5c9426b)"><path fill="#ffffff" d="M 8.804688 14.042969 C 8.804688 14.042969 10.648438 13.21875 10.277344 14.59375 C 9.910156 15.972656 8.4375 17.980469 8.898438 18.070312 C 9.359375 18.160156 10.652344 16.882812 11.015625 17.0625 C 11.378906 17.246094 11.660156 17.15625 11.476562 17.796875 C 11.292969 18.4375 11.109375 18.894531 11.476562 18.894531 C 11.847656 18.894531 12.121094 18.066406 12.582031 17.246094 C 13.042969 16.425781 13.78125 16.789062 14.054688 17.0625 C 14.332031 17.339844 15.160156 18.894531 15.808594 18.710938 C 16.453125 18.527344 16.820312 17.703125 16.542969 15.875 C 16.265625 14.042969 16.726562 13.496094 16.726562 13.496094 C 16.726562 13.496094 17.28125 13.222656 18.292969 14.503906 C 19.308594 15.78125 21.152344 17.703125 21.425781 17.613281 C 21.699219 17.523438 20.136719 15.507812 20.503906 15.328125 C 20.871094 15.144531 22.347656 15.601562 23.085938 16.242188 C 23.085938 16.242188 23.335938 17.289062 23.335938 16.285156 L 15.808594 8.921875 L 14.515625 9.011719 L 13.320312 9.101562 C 13.320312 9.101562 10.371094 13.496094 8.804688 14.042969 Z M 8.804688 14.042969 " fill-opacity="1" fill-rule="nonzero"/></g></g><g clip-path="url(#5d4ee189f5)"><g clip-path="url(#e24f99b036)"><path stroke-linecap="butt" transform="matrix(0.119015, 0, 0, 0.11821, 0.774181, 0.263933)" fill="none" stroke-linejoin="miter" d="M 239.328824 170.097661 C 185.895267 146.106888 130.951917 76.315549 126.324072 73.242351 C 121.696228 70.136108 115.492946 74.002389 115.492946 74.002389 C 111.619998 67.822948 105.416717 74.795473 105.416717 74.795473 C 76.763464 123.537056 0.12504 170.097661 0.12504 170.097661 " stroke="#221e1f" stroke-width="7.16" stroke-opacity="1" stroke-miterlimit="10"/></g></g><g clip-path="url(#96d03e1201)"><path stroke-linecap="butt" transform="matrix(0.119015, 0, 0, 0.11821, 0.569476, 0.263933)" fill="none" stroke-linejoin="miter" d="M 237.602556 119.736865 C 237.602556 127.370293 236.847659 134.904585 235.370688 142.405832 C 233.893716 149.874034 231.661847 157.143965 228.773547 164.18258 C 225.852425 171.221195 222.274871 177.929359 218.040886 184.274026 C 213.774078 190.585648 208.982125 196.467683 203.566562 201.854041 C 198.183821 207.240399 192.308755 212.06499 185.974187 216.294768 C 179.63962 220.557591 172.944014 224.126467 165.887371 227.034439 C 158.86355 229.942412 151.577156 232.156436 144.093832 233.643467 C 136.64333 235.130499 129.061542 235.890537 121.446932 235.890537 C 113.832322 235.890537 106.283355 235.130499 98.800031 233.643467 C 91.316708 232.156436 84.063135 229.942412 77.006493 227.034439 C 69.94985 224.126467 63.254244 220.557591 56.919676 216.294768 C 50.585109 212.06499 44.710043 207.240399 39.327302 201.854041 C 33.911738 196.467683 29.119786 190.585648 24.8858 184.274026 C 20.651814 177.929359 17.07426 171.221195 14.153138 164.18258 C 11.232016 157.143965 9.03297 149.874034 7.523176 142.405832 C 6.046204 134.904585 5.291308 127.370293 5.291308 119.736865 C 5.291308 112.103437 6.046204 104.5361 7.523176 97.067898 C 9.03297 89.599696 11.232016 82.329765 14.153138 75.29115 C 17.07426 68.21949 20.651814 61.544371 24.8858 55.199704 C 29.119786 48.855037 33.911738 43.006047 39.327302 37.586643 C 44.710043 32.200285 50.585109 27.375695 56.919676 23.145917 C 63.254244 18.916139 69.94985 15.347263 77.006493 12.406246 C 84.063135 9.498273 91.316708 7.284249 98.800031 5.797217 C 106.283355 4.310186 113.832322 3.583193 121.446932 3.583193 C 129.061542 3.583193 136.64333 4.310186 144.093832 5.797217 C 151.577156 7.284249 158.86355 9.498273 165.887371 12.406246 C 172.944014 15.347263 179.63962 18.916139 185.974187 23.145917 C 192.308755 27.375695 198.183821 32.200285 203.566562 37.586643 C 208.982125 43.006047 213.774078 48.855037 218.040886 55.199704 C 222.274871 61.544371 225.852425 68.21949 228.773547 75.29115 C 231.661847 82.329765 233.893716 89.599696 235.370688 97.067898 C 236.847659 104.5361 237.602556 112.103437 237.602556 119.736865 Z M 237.602556 119.736865 " stroke="#221e1f" stroke-width="7.16" stroke-opacity="1" stroke-miterlimit="10"/></g></svg>