<?xml version="1.0" encoding="UTF-8"?>
<svg version="1.1" xmlns="http://www.w3.org/2000/svg" width="64" height="64">
<path d="M0 0 C7.111688 4.22215243 11.68300322 9.66905485 15.10546875 17.25 C15.48046875 20.875 15.48046875 20.875 15.10546875 23.25 C13.45546875 23.58 11.80546875 23.91 10.10546875 24.25 C9.61046875 22.765 9.61046875 22.765 9.10546875 21.25 C-8.21953125 21.745 -8.21953125 21.745 -25.89453125 22.25 C-25.89453125 26.87 -25.89453125 31.49 -25.89453125 36.25 C-22.42953125 36.745 -22.42953125 36.745 -18.89453125 37.25 C-18.26953125 39.125 -18.26953125 39.125 -17.89453125 41.25 C-18.55453125 41.91 -19.21453125 42.57 -19.89453125 43.25 C-20.88453125 43.25 -21.87453125 43.25 -22.89453125 43.25 C-21.7941931 44.85679516 -20.68910461 46.46033793 -19.58203125 48.0625 C-18.96714844 48.95582031 -18.35226563 49.84914062 -17.71875 50.76953125 C-16.02932312 53.22076605 -16.02932312 53.22076605 -14.14453125 54.90625 C-13.73203125 55.3496875 -13.31953125 55.793125 -12.89453125 56.25 C-13.20703125 58.9375 -13.20703125 58.9375 -13.89453125 61.25 C-22.98410549 61.94622271 -30.46531871 60.2369411 -37.70703125 54.5 C-43.76476515 48.84230513 -47.48560493 41.79573908 -48.23046875 33.515625 C-48.47187868 22.78614726 -47.22004818 13.94259894 -39.59765625 5.78125 C-29.0100223 -3.73790713 -12.93902605 -6.24194221 0 0 Z M-32.89453125 9.25 C-34.70020778 11.17292825 -36.27811142 13.15816258 -37.89453125 15.25 C-34.65242606 16.08787121 -34.65242606 16.08787121 -30.89453125 15.25 C-28.39937364 12.16488105 -26.62916749 8.80822819 -24.89453125 5.25 C-28.27647521 5.25 -30.24255787 7.27401983 -32.89453125 9.25 Z M-16.89453125 5.25 C-18.48279347 6.96497772 -18.48279347 6.96497772 -20.01953125 9.125 C-20.55835938 9.84429688 -21.0971875 10.56359375 -21.65234375 11.3046875 C-23.07392757 13.14626006 -23.07392757 13.14626006 -22.89453125 15.25 C-18.27453125 15.25 -13.65453125 15.25 -8.89453125 15.25 C-10.60071449 10.98454189 -11.87432667 8.55334875 -14.89453125 5.25 C-15.55453125 5.25 -16.21453125 5.25 -16.89453125 5.25 Z M-6.89453125 5.25 C-5.15989501 8.80822819 -3.38968886 12.16488105 -0.89453125 15.25 C2.86336356 16.08787121 2.86336356 16.08787121 6.10546875 15.25 C2.83352533 11.14601599 -0.04642513 7.53938344 -4.89453125 5.25 C-5.55453125 5.25 -6.21453125 5.25 -6.89453125 5.25 Z M-40.89453125 21.25 C-42.25992063 23.98077876 -42.02684951 26.20560367 -42.01953125 29.25 C-42.02210937 30.3225 -42.0246875 31.395 -42.02734375 32.5 C-42.08176535 35.21182052 -42.08176535 35.21182052 -40.89453125 37.25 C-38.25453125 37.25 -35.61453125 37.25 -32.89453125 37.25 C-32.89453125 31.97 -32.89453125 26.69 -32.89453125 21.25 C-35.53453125 21.25 -38.17453125 21.25 -40.89453125 21.25 Z M-37.89453125 43.25 C-33.20704286 49.20111041 -33.20704286 49.20111041 -26.89453125 53.25 C-26.23453125 52.92 -25.57453125 52.59 -24.89453125 52.25 C-26.64689465 49.01486756 -28.42925676 45.99335318 -30.89453125 43.25 C-34.65096549 42.49586647 -34.65096549 42.49586647 -37.89453125 43.25 Z " fill="#00A329" transform="translate(47.89453125,2.75)"/>
<path d="M0 0 C1.68156955 3.36313909 1.22674377 7.11766587 1.25 10.8125 C1.270625 11.62009766 1.29125 12.42769531 1.3125 13.25976562 C1.35072603 19.09401367 0.38413224 22.33260452 -3.578125 26.765625 C-6.47453023 29.33719974 -8.75660632 30.91149321 -12.4375 32.25 C-18.67812804 31.81206119 -22.37629636 27.79023734 -26.4375 23.3125 C-29.24405749 19.15879491 -29.22080824 15.53774773 -29.3125 10.625 C-29.34988281 9.31789063 -29.38726562 8.01078125 -29.42578125 6.6640625 C-28.93477742 2.43872681 -28.04955875 0.90636208 -25 -2 C-16.5270132 -6.80985341 -7.85931776 -5.19381348 0 0 Z " fill="#00A329" transform="translate(63,32)"/>
</svg>
