<svg xmlns="http://www.w3.org/2000/svg" xmlns:xlink="http://www.w3.org/1999/xlink" width="40" zoomAndPan="magnify" viewBox="0 0 30 30.000001" height="40" preserveAspectRatio="xMidYMid meet" version="1.0"><defs><clipPath id="feb5156e7e"><path d="M 0.800781 0 L 29.515625 0 L 29.515625 29 L 0.800781 29 Z M 0.800781 0 " clip-rule="nonzero"/></clipPath><clipPath id="08a0820e4d"><path d="M 0.800781 14.585938 C 0.800781 12.679688 1.167969 10.847656 1.90625 9.089844 C 2.640625 7.332031 3.691406 5.777344 5.050781 4.433594 C 6.414062 3.085938 7.984375 2.046875 9.761719 1.320312 C 11.539062 0.589844 13.390625 0.226562 15.316406 0.226562 C 17.242188 0.226562 19.09375 0.589844 20.871094 1.320312 C 22.648438 2.046875 24.21875 3.085938 25.582031 4.433594 C 26.941406 5.777344 27.992188 7.332031 28.726562 9.089844 C 29.464844 10.847656 29.832031 12.679688 29.832031 14.585938 C 29.832031 16.488281 29.464844 18.320312 28.726562 20.078125 C 27.992188 21.835938 26.941406 23.390625 25.582031 24.738281 C 24.21875 26.082031 22.648438 27.121094 20.871094 27.847656 C 19.09375 28.578125 17.242188 28.941406 15.316406 28.941406 C 13.390625 28.941406 11.539062 28.578125 9.761719 27.847656 C 7.984375 27.121094 6.414062 26.082031 5.050781 24.738281 C 3.691406 23.390625 2.640625 21.835938 1.90625 20.078125 C 1.167969 18.320312 0.800781 16.488281 0.800781 14.585938 Z M 0.800781 14.585938 " clip-rule="nonzero"/></clipPath><clipPath id="22444adb27"><path d="M 5 9 L 25 9 L 25 21 L 5 21 Z M 5 9 " clip-rule="nonzero"/></clipPath><clipPath id="74b9bcd203"><path d="M 0.800781 14.585938 C 0.800781 12.679688 1.167969 10.847656 1.90625 9.089844 C 2.640625 7.332031 3.691406 5.777344 5.050781 4.433594 C 6.414062 3.085938 7.984375 2.046875 9.761719 1.320312 C 11.539062 0.589844 13.390625 0.226562 15.316406 0.226562 C 17.242188 0.226562 19.09375 0.589844 20.871094 1.320312 C 22.648438 2.046875 24.21875 3.085938 25.582031 4.433594 C 26.941406 5.777344 27.992188 7.332031 28.726562 9.089844 C 29.464844 10.847656 29.832031 12.679688 29.832031 14.585938 C 29.832031 16.488281 29.464844 18.320312 28.726562 20.078125 C 27.992188 21.835938 26.941406 23.390625 25.582031 24.738281 C 24.21875 26.082031 22.648438 27.121094 20.871094 27.847656 C 19.09375 28.578125 17.242188 28.941406 15.316406 28.941406 C 13.390625 28.941406 11.539062 28.578125 9.761719 27.847656 C 7.984375 27.121094 6.414062 26.082031 5.050781 24.738281 C 3.691406 23.390625 2.640625 21.835938 1.90625 20.078125 C 1.167969 18.320312 0.800781 16.488281 0.800781 14.585938 Z M 0.800781 14.585938 " clip-rule="nonzero"/></clipPath></defs><g clip-path="url(#feb5156e7e)"><g clip-path="url(#08a0820e4d)"><path fill="#ff4f00" d="M 4.285156 0.226562 L 26.347656 0.226562 C 26.8125 0.226562 27.253906 0.316406 27.683594 0.488281 C 28.109375 0.664062 28.484375 0.914062 28.8125 1.238281 C 29.140625 1.558594 29.390625 1.933594 29.566406 2.355469 C 29.746094 2.777344 29.832031 3.214844 29.832031 3.671875 L 29.832031 25.496094 C 29.832031 25.953125 29.746094 26.390625 29.566406 26.816406 C 29.390625 27.238281 29.140625 27.609375 28.8125 27.933594 C 28.484375 28.253906 28.109375 28.503906 27.683594 28.679688 C 27.253906 28.855469 26.8125 28.941406 26.347656 28.941406 L 4.285156 28.941406 C 3.824219 28.941406 3.378906 28.855469 2.953125 28.679688 C 2.523438 28.503906 2.148438 28.253906 1.820312 27.933594 C 1.496094 27.609375 1.242188 27.238281 1.066406 26.816406 C 0.890625 26.390625 0.800781 25.953125 0.800781 25.496094 L 0.800781 3.671875 C 0.800781 3.214844 0.890625 2.777344 1.066406 2.355469 C 1.242188 1.933594 1.496094 1.558594 1.820312 1.238281 C 2.148438 0.914062 2.523438 0.664062 2.953125 0.488281 C 3.378906 0.316406 3.824219 0.226562 4.285156 0.226562 Z M 4.285156 0.226562 " fill-opacity="1" fill-rule="nonzero"/></g></g><g clip-path="url(#22444adb27)"><g clip-path="url(#74b9bcd203)"><path fill="#ffffff" d="M 12.734375 12.457031 L 24.675781 12.457031 L 24.675781 9.164062 L 12.761719 9.164062 C 11.175781 9.113281 9.644531 9.730469 8.5625 10.859375 C 5.960938 13.578125 5.890625 20.414062 5.890625 20.414062 L 24.582031 20.414062 L 24.582031 14.226562 L 21.226562 14.226562 L 21.226562 17.109375 L 9.476562 17.109375 C 9.550781 16.035156 10.054688 14.113281 11.007812 13.117188 C 11.457031 12.660156 12.085938 12.421875 12.734375 12.457031 Z M 12.734375 12.457031 " fill-opacity="1" fill-rule="nonzero"/></g></g></svg>