<?xml version="1.0" encoding="UTF-8"?>
<svg version="1.1" xmlns="http://www.w3.org/2000/svg" width="64" height="64">
<path d="M0 0 C2.1875 -0.3125 2.1875 -0.3125 5 0 C6.11375 1.299375 6.11375 1.299375 7.25 2.625 C9.64667914 5.22024057 9.64667914 5.22024057 12 4.9921875 C15.19674817 4.29289884 18.22147725 3.27757178 21.30078125 2.1796875 C22.04714844 1.91414062 22.79351563 1.64859375 23.5625 1.375 C24.22378906 1.11460938 24.88507812 0.85421875 25.56640625 0.5859375 C32.48374569 -1.07955354 38.18859526 0.31211838 44.6875 2.6875 C45.78674805 3.05391602 45.78674805 3.05391602 46.90820312 3.42773438 C51.65135765 5.11713567 54.72366848 7.02204491 58 11 C59.63889958 15.91669873 59.26831583 20.97607163 59.3125 26.125 C59.34150391 27.2284375 59.37050781 28.331875 59.40039062 29.46875 C59.44989942 35.88204355 58.9245779 40.50046792 55.66870117 46.09326172 C54.75963354 48.04109889 54.75963354 48.04109889 55.77612305 50.13745117 C57.17087478 52.26004462 58.73077885 53.74985029 60.625 55.4375 C63.94433699 58.62626266 63.94433699 58.62626266 64.4375 61.9375 C64.293125 62.618125 64.14875 63.29875 64 64 C61.87397766 64.33354187 61.87397766 64.33354187 59 64 C56.79333332 62.28646372 54.95790962 60.64170093 53.01635742 58.66333008 C52.44016663 58.09590088 51.86397583 57.52847168 51.27032471 56.94384766 C49.36926679 55.06479547 47.48708179 53.1680402 45.60546875 51.26953125 C44.29055131 49.95798156 42.97489237 48.64717489 41.65852356 47.33708191 C38.90256433 44.58849567 36.15585535 41.83106485 33.4152832 39.06713867 C29.90020287 35.52357144 26.36315359 32.00292369 22.81887341 28.48859119 C20.09809084 25.7858694 17.38932172 23.07135981 14.68404579 20.35312462 C13.38434263 19.05008413 12.08090969 17.75075298 10.77373314 16.45520973 C8.94900801 14.64317208 7.1410631 12.81589714 5.33666992 10.98364258 C4.79283157 10.44992538 4.24899323 9.91620819 3.68867493 9.36631775 C1.33525075 6.94506736 0.06245153 5.53811628 -0.33354187 2.12602234 C-0.22347305 1.42443497 -0.11340424 0.7228476 0 0 Z " fill="#AAAAAA" transform="translate(0,0)"/>
<path d="M0 0 C3.92936006 0.40339976 5.92122184 1.41672634 8.70458984 4.17114258 C9.38814545 4.83886185 10.07170105 5.50658112 10.77597046 6.1945343 C11.49700958 6.92053329 12.21804871 7.64653229 12.9609375 8.39453125 C14.0858812 9.51017708 14.0858812 9.51017708 15.23355103 10.64836121 C16.81354003 12.22125355 18.38841464 13.79929778 19.95849609 15.38208008 C22.3713701 17.8088492 24.80730417 20.21063695 27.24609375 22.61132812 C28.7774939 24.14177741 30.30749149 25.67363168 31.8359375 27.20703125 C32.56912201 27.92695755 33.30230652 28.64688385 34.05770874 29.3886261 C34.72235138 30.06580185 35.38699402 30.7429776 36.07177734 31.44067383 C36.66292328 32.03278152 37.25406921 32.62488922 37.86312866 33.23493958 C39 35 39 35 38.79898071 37.12968445 C37.6860888 39.73482751 36.27921588 40.41127982 33.8125 41.75 C33.05582031 42.17796875 32.29914062 42.6059375 31.51953125 43.046875 C28.42303394 44.21826313 26.29245793 44.3559414 23 44 C12.82497358 39.30834517 4.11952097 31.49663254 0 21 C-1.29521242 17.11436275 -1.14503464 13.42199731 -1.125 9.375 C-1.12886719 8.58609375 -1.13273438 7.7971875 -1.13671875 6.984375 C-1.12665394 1.12665394 -1.12665394 1.12665394 0 0 Z " fill="#AAAAAA" transform="translate(6,20)"/>
</svg>
