<svg xmlns="http://www.w3.org/2000/svg" xmlns:xlink="http://www.w3.org/1999/xlink" width="40" zoomAndPan="magnify" viewBox="0 0 30 30.000001" height="40" preserveAspectRatio="xMidYMid meet" version="1.0"><defs><clipPath id="6e2816aafd"><path d="M 0.484375 13 L 5 13 L 5 26 L 0.484375 26 Z M 0.484375 13 " clip-rule="nonzero"/></clipPath><clipPath id="2db639579f"><path d="M 8 1.453125 L 14 1.453125 L 14 6 L 8 6 Z M 8 1.453125 " clip-rule="nonzero"/></clipPath><clipPath id="177c694f0b"><path d="M 8 1.453125 L 29.515625 1.453125 L 29.515625 27.582031 L 8 27.582031 Z M 8 1.453125 " clip-rule="nonzero"/></clipPath></defs><path fill="#1e1e1e" d="M 13.132812 7.953125 L 13.363281 7.644531 L 13.210938 7.414062 L 12.980469 6.957031 L 13.132812 6.574219 L 12.828125 6.34375 L 12.523438 6.496094 L 12.367188 6.804688 L 12.367188 6.878906 L 12.523438 6.957031 L 12.445312 7.1875 L 12.597656 7.414062 L 12.445312 7.644531 L 12.136719 7.800781 L 12.367188 8.03125 L 13.132812 7.953125 " fill-opacity="1" fill-rule="nonzero"/><path fill="#1e1e1e" d="M 3.246094 7.875 L 3.859375 7.1875 L 4.546875 6.878906 L 4.855469 7.03125 L 5.46875 7.03125 L 6.003906 7.261719 L 6.464844 6.878906 L 6.464844 6.1875 L 6.925781 5.882812 L 7.15625 5.269531 L 7.84375 4.65625 L 7.691406 4.273438 L 8 3.964844 L 7.84375 3.8125 L 7.078125 4.195312 L 6.464844 4.503906 L 6.589844 4.191406 C 5.070312 5.28125 3.769531 6.65625 2.761719 8.238281 L 3.246094 7.875 " fill-opacity="1" fill-rule="nonzero"/><path fill="#1e1e1e" d="M 1.074219 11.957031 L 1.175781 12.015625 L 1.25 12.398438 L 1.558594 12.476562 L 1.25 11.632812 L 1.292969 11.273438 C 1.214844 11.5 1.140625 11.726562 1.074219 11.957031 " fill-opacity="1" fill-rule="nonzero"/><g clip-path="url(#6e2816aafd)"><path fill="#1e1e1e" d="M 3.933594 24.972656 L 3.628906 24.207031 L 3.550781 23.667969 L 4.089844 23.820312 L 4.242188 23.132812 L 4.011719 22.136719 L 3.859375 21.980469 L 4.164062 21.753906 L 4.546875 20.984375 L 4.472656 20.21875 L 4.089844 19.910156 L 3.398438 19.070312 L 3.089844 18.761719 L 2.25 18.148438 L 2.019531 17.917969 L 2.019531 16.617188 L 1.789062 16.386719 L 1.480469 15.925781 L 1.328125 15.773438 L 1.175781 14.929688 L 1.25 14.164062 L 0.867188 14.085938 L 0.867188 13.550781 L 0.730469 13.386719 C 0.566406 14.261719 0.480469 15.164062 0.480469 16.085938 C 0.480469 19.726562 1.8125 23.058594 4.015625 25.621094 L 3.933594 24.972656 " fill-opacity="1" fill-rule="nonzero"/></g><g clip-path="url(#2db639579f)"><path fill="#1e1e1e" d="M 8.382812 3.277344 L 8.152344 3.660156 L 8.074219 4.121094 L 8.382812 4.121094 L 8.917969 3.964844 L 9.609375 3.660156 L 10.144531 2.96875 L 10.757812 2.664062 L 11.140625 2.585938 L 11.371094 2.664062 L 11.140625 2.96875 L 10.453125 3.429688 L 9.914062 3.964844 L 9.378906 3.890625 L 8.917969 4.578125 L 8.765625 5.191406 L 9.148438 5.191406 L 9.53125 4.808594 L 10.222656 4.503906 L 10.835938 4.503906 L 11.140625 4.347656 L 12.292969 4.347656 L 12.292969 4.042969 L 12.75 3.8125 L 12.90625 3.582031 L 13.363281 3.277344 L 13.75 2.894531 L 13.132812 2.28125 L 12.675781 2.28125 L 12.214844 2.050781 L 12.003906 1.785156 C 10.597656 2.089844 9.261719 2.597656 8.039062 3.277344 L 8.382812 3.277344 " fill-opacity="1" fill-rule="nonzero"/></g><path fill="#1e1e1e" d="M 12.214844 5.191406 L 12.367188 4.960938 L 11.90625 4.808594 L 11.371094 4.808594 L 11.371094 5.117188 L 11.90625 5.347656 L 12.214844 5.191406 " fill-opacity="1" fill-rule="nonzero"/><path fill="#1e1e1e" d="M 12.367188 7.414062 L 12.214844 7.109375 L 11.984375 6.957031 L 11.601562 7.261719 L 11.449219 7.800781 L 11.984375 7.644531 L 12.367188 7.414062 " fill-opacity="1" fill-rule="nonzero"/><path fill="#1e1e1e" d="M 18.042969 11.554688 L 17.734375 11.480469 L 17.429688 11.632812 L 17.8125 11.710938 L 18.042969 11.554688 " fill-opacity="1" fill-rule="nonzero"/><path fill="#1e1e1e" d="M 27.316406 16.308594 L 27.164062 16.691406 L 27.472656 17.304688 L 27.625 17.152344 L 27.699219 16.691406 L 27.472656 16.691406 L 27.472656 16.460938 L 27.316406 16.308594 " fill-opacity="1" fill-rule="nonzero"/><path fill="#1e1e1e" d="M 22.871094 24.511719 L 23.175781 23.898438 L 23.636719 23.363281 L 23.636719 22.671875 L 23.792969 22.441406 L 23.5625 22.289062 L 23.101562 23.054688 L 22.488281 23.285156 L 22.257812 24.050781 L 21.949219 24.589844 L 21.875 24.894531 L 21.949219 25.355469 L 22.410156 25.203125 L 22.871094 24.511719 " fill-opacity="1" fill-rule="nonzero"/><g clip-path="url(#177c694f0b)"><path fill="#1e1e1e" d="M 22.105469 10.328125 L 21.722656 9.714844 L 21.261719 9.179688 L 20.953125 8.796875 L 20.953125 8.414062 L 21.261719 8.183594 L 21.335938 8.566406 L 21.644531 8.949219 L 21.722656 9.332031 L 22.257812 9.5625 L 22.335938 10.097656 Z M 20.035156 9.945312 L 19.421875 9.714844 L 18.960938 9.714844 L 18.730469 10.023438 L 18.117188 10.023438 L 17.886719 9.792969 L 17.964844 9.257812 L 18.347656 8.71875 L 18.5 8.796875 L 18.578125 8.949219 L 18.5 9.257812 L 18.882812 9.257812 L 19.113281 9.101562 L 18.960938 8.796875 L 19.269531 8.566406 L 19.421875 8.949219 L 19.574219 9.257812 L 20.109375 9.332031 L 20.496094 9.792969 Z M 20.339844 19.988281 L 20.570312 20.140625 L 20.570312 20.21875 L 20.417969 20.449219 L 20.417969 20.679688 L 20.109375 20.910156 L 19.957031 20.527344 L 20.035156 20.21875 Z M 15.113281 1.453125 C 14.210938 1.453125 13.328125 1.535156 12.46875 1.691406 L 12.675781 1.894531 L 13.132812 2.125 L 13.75 2.507812 L 14.207031 2.894531 L 14.976562 2.96875 L 14.667969 3.121094 L 15.203125 3.660156 L 15.433594 3.507812 L 15.433594 3.121094 L 15.742188 2.894531 L 15.972656 2.96875 L 16.507812 2.96875 L 16.660156 2.816406 L 16.660156 2.433594 L 17.734375 2.355469 L 18.042969 2.664062 L 18.578125 2.96875 L 18.578125 3.507812 L 18.5 4.042969 L 17.886719 4.347656 L 17.582031 4.808594 L 17.199219 4.578125 L 16.429688 4.195312 L 15.585938 4.273438 L 15.050781 4.808594 L 14.820312 5.421875 L 14.285156 5.578125 L 14.054688 6.113281 L 14.132812 6.648438 L 14.515625 6.804688 L 14.667969 6.574219 L 14.976562 6.726562 L 15.28125 7.03125 L 15.585938 6.957031 L 15.664062 6.496094 L 15.816406 6.035156 L 15.585938 5.652344 L 15.742188 5.269531 L 16.046875 5.039062 L 16.203125 5.347656 L 16.046875 5.960938 L 16.429688 6.1875 L 16.507812 6.496094 L 16.203125 7.03125 L 15.816406 7.261719 L 15.203125 7.339844 L 14.976562 7.03125 L 14.746094 6.878906 L 14.359375 6.957031 L 14.359375 7.414062 L 13.902344 7.492188 L 13.519531 7.800781 L 13.132812 8.183594 L 12.523438 8.335938 L 12.523438 9.410156 L 11.679688 9.484375 L 11.292969 9.332031 L 10.988281 9.792969 L 10.835938 10.710938 L 10.910156 11.097656 L 11.523438 11.171875 L 12.292969 11.097656 L 12.75 10.710938 L 12.980469 10.097656 L 13.289062 9.867188 L 13.363281 9.5625 L 13.75 9.640625 L 14.054688 9.867188 L 14.667969 9.640625 L 15.203125 10.023438 L 15.585938 10.710938 L 15.359375 10.789062 L 15.050781 10.941406 L 15.28125 11.171875 L 15.664062 11.324219 L 15.894531 11.097656 L 16.046875 10.867188 L 16.125 10.484375 L 15.585938 9.714844 L 15.433594 9.410156 L 15.972656 9.640625 L 16.507812 9.945312 L 16.507812 10.328125 L 16.890625 10.710938 L 16.96875 11.097656 L 17.273438 11.324219 L 17.503906 10.867188 L 17.351562 10.636719 L 17.351562 10.175781 L 17.734375 10.253906 L 17.886719 10.710938 L 18.042969 11.097656 L 18.5 11.097656 L 18.578125 11.324219 L 18.960938 11.25 L 19.34375 11.480469 L 19.496094 11.324219 L 19.34375 11.097656 L 19.652344 10.867188 L 19.804688 11.25 L 19.804688 12.167969 L 19.496094 12.324219 L 18.960938 12.398438 L 17.886719 12.324219 L 17.503906 12.09375 L 17.042969 12.015625 L 16.738281 12.398438 L 16.585938 12.78125 L 16.203125 12.550781 L 15.664062 11.9375 L 14.976562 12.015625 L 14.976562 11.554688 L 14.820312 11.097656 L 12.90625 11.019531 L 12.445312 11.25 L 11.601562 11.402344 L 11.140625 11.554688 L 10.605469 11.863281 L 10.144531 12.398438 L 9.992188 12.78125 L 9.300781 13.011719 L 8.457031 14.007812 L 8.535156 14.546875 L 8.304688 15.082031 L 8.074219 15.847656 L 8.074219 16.847656 L 8.613281 17.535156 L 9.148438 18.53125 L 9.683594 19.070312 L 11.140625 19.222656 L 12.292969 19.144531 L 12.75 18.839844 L 13.210938 18.992188 L 13.363281 19.375 L 14.359375 19.453125 L 14.515625 19.910156 L 14.285156 20.601562 L 14.667969 21.445312 L 15.359375 22.210938 L 15.359375 22.824219 L 15.203125 23.515625 L 14.976562 24.28125 L 15.128906 24.972656 L 15.511719 25.355469 L 15.664062 26.199219 L 15.894531 26.503906 L 16.203125 27.042969 L 16.277344 27.5 L 17.121094 27.578125 L 17.503906 27.273438 L 18.269531 27.273438 L 18.882812 27.117188 L 19.34375 26.273438 L 19.804688 25.816406 L 20.1875 25.433594 L 20.339844 24.664062 L 20.722656 24.28125 L 21.722656 23.746094 L 21.875 22.980469 L 21.875 21.367188 L 22.027344 20.527344 L 22.566406 19.988281 L 23.5625 18.609375 L 23.945312 17.765625 L 23.945312 16.386719 L 23.714844 16.308594 L 23.40625 16.617188 L 22.410156 16.921875 L 21.949219 16.230469 L 21.109375 15.386719 L 20.496094 14.007812 L 20.035156 13.164062 L 20.1875 13.089844 L 20.496094 13.394531 L 20.953125 14.085938 L 21.335938 14.699219 L 21.722656 15.3125 L 22.335938 15.695312 L 22.335938 16.460938 L 22.566406 16.539062 L 23.175781 16.003906 L 23.636719 15.695312 L 24.175781 15.003906 L 24.480469 14.316406 L 24.710938 13.394531 L 24.558594 13.011719 L 24.25 12.859375 L 24.019531 12.550781 L 23.945312 12.78125 L 23.792969 13.242188 L 23.332031 13.164062 L 23.023438 12.78125 L 22.335938 12.246094 L 22.335938 11.710938 L 22.640625 11.863281 L 22.949219 12.324219 L 23.484375 12.550781 L 23.636719 12.78125 L 24.097656 12.398438 L 24.710938 12.707031 L 25.171875 12.398438 L 25.785156 12.476562 L 26.246094 12.9375 L 26.703125 13.089844 L 27.011719 13.625 L 27.242188 14.546875 L 27.699219 15.160156 L 27.777344 15.695312 L 28.160156 15.925781 L 28.46875 15.773438 L 28.085938 14.851562 L 27.929688 13.933594 L 27.855469 12.78125 L 27.855469 11.632812 L 28.085938 11.632812 L 28.3125 12.246094 L 28.699219 12.859375 L 28.699219 13.472656 L 29.457031 13.914062 C 29.4375 13.957031 29.742188 16.4375 29.742188 16.085938 C 29.742188 8.003906 23.191406 1.453125 15.113281 1.453125 " fill-opacity="1" fill-rule="nonzero"/></g></svg>