<svg xmlns="http://www.w3.org/2000/svg" xmlns:xlink="http://www.w3.org/1999/xlink" width="40" zoomAndPan="magnify" viewBox="0 0 30 30.000001" height="40" preserveAspectRatio="xMidYMid meet" version="1.0"><defs><clipPath id="0ea4224950"><path d="M 0.484375 0 L 29.515625 0 L 29.515625 29.03125 L 0.484375 29.03125 Z M 0.484375 0 " clip-rule="nonzero"/></clipPath><clipPath id="22aa46027c"><path d="M 15 0 C 6.984375 0 0.484375 6.5 0.484375 14.515625 C 0.484375 22.53125 6.984375 29.03125 15 29.03125 C 23.015625 29.03125 29.515625 22.53125 29.515625 14.515625 C 29.515625 6.5 23.015625 0 15 0 Z M 15 0 " clip-rule="nonzero"/></clipPath><clipPath id="09801dcf22"><path d="M 2.214844 11.191406 L 15 11.191406 L 15 17.726562 L 2.214844 17.726562 Z M 2.214844 11.191406 " clip-rule="nonzero"/></clipPath><clipPath id="e9d09517f4"><path d="M 14 11.191406 L 21 11.191406 L 21 17.726562 L 14 17.726562 Z M 14 11.191406 " clip-rule="nonzero"/></clipPath><clipPath id="063d798d58"><path d="M 21 11.191406 L 27.621094 11.191406 L 27.621094 17.726562 L 21 17.726562 Z M 21 11.191406 " clip-rule="nonzero"/></clipPath></defs><g clip-path="url(#0ea4224950)"><g clip-path="url(#22aa46027c)"><path fill="#873eff" d="M 0.484375 0 L 29.515625 0 L 29.515625 29.03125 L 0.484375 29.03125 Z M 0.484375 0 " fill-opacity="1" fill-rule="nonzero"/></g></g><g clip-path="url(#09801dcf22)"><path fill="#ffffff" d="M 12.992188 11.207031 C 12.394531 11.207031 12.003906 11.402344 11.65625 12.058594 L 10.070312 15.050781 L 10.070312 12.390625 C 10.070312 11.597656 9.691406 11.207031 8.996094 11.207031 C 8.300781 11.207031 8.007812 11.445312 7.660156 12.113281 L 6.15625 15.050781 L 6.15625 12.417969 C 6.15625 11.570312 5.808594 11.207031 4.960938 11.207031 L 3.234375 11.207031 C 2.578125 11.207031 2.214844 11.515625 2.214844 12.070312 C 2.214844 12.628906 2.5625 12.960938 3.203125 12.960938 L 3.914062 12.960938 L 3.914062 16.316406 C 3.914062 17.265625 4.554688 17.820312 5.472656 17.820312 C 6.394531 17.820312 6.8125 17.460938 7.269531 16.609375 L 8.273438 14.730469 L 8.273438 16.316406 C 8.273438 17.25 8.886719 17.820312 9.816406 17.820312 C 10.75 17.820312 11.097656 17.5 11.628906 16.609375 L 13.9375 12.710938 C 14.441406 11.863281 14.09375 11.207031 12.976562 11.207031 C 12.976562 11.207031 12.976562 11.207031 12.992188 11.207031 Z M 12.992188 11.207031 " fill-opacity="1" fill-rule="evenodd"/></g><g clip-path="url(#e9d09517f4)"><path fill="#ffffff" d="M 17.335938 11.207031 C 15.441406 11.207031 14.007812 12.613281 14.007812 14.523438 C 14.007812 16.429688 15.457031 17.820312 17.335938 17.820312 C 19.214844 17.820312 20.648438 16.414062 20.664062 14.523438 C 20.664062 12.613281 19.214844 11.207031 17.335938 11.207031 Z M 17.335938 15.789062 C 16.625 15.789062 16.140625 15.261719 16.140625 14.523438 C 16.140625 13.785156 16.625 13.242188 17.335938 13.242188 C 18.046875 13.242188 18.535156 13.785156 18.535156 14.523438 C 18.535156 15.261719 18.058594 15.789062 17.335938 15.789062 Z M 17.335938 15.789062 " fill-opacity="1" fill-rule="evenodd"/></g><g clip-path="url(#063d798d58)"><path fill="#ffffff" d="M 24.449219 11.207031 C 22.570312 11.207031 21.125 12.613281 21.125 14.523438 C 21.125 16.429688 22.570312 17.820312 24.449219 17.820312 C 26.332031 17.820312 27.777344 16.414062 27.777344 14.523438 C 27.777344 12.628906 26.332031 11.207031 24.449219 11.207031 Z M 24.449219 15.789062 C 23.726562 15.789062 23.265625 15.261719 23.265625 14.523438 C 23.265625 13.785156 23.742188 13.242188 24.449219 13.242188 C 25.160156 13.242188 25.648438 13.785156 25.648438 14.523438 C 25.648438 15.261719 25.175781 15.789062 24.449219 15.789062 Z M 24.449219 15.789062 " fill-opacity="1" fill-rule="evenodd"/></g></svg>