<svg xmlns="http://www.w3.org/2000/svg" xmlns:xlink="http://www.w3.org/1999/xlink" width="40" zoomAndPan="magnify" viewBox="0 0 30 30.000001" height="40" preserveAspectRatio="xMidYMid meet" version="1.0"><defs><clipPath id="03d88125d5"><path d="M 0.484375 14 L 8 14 L 8 22 L 0.484375 22 Z M 0.484375 14 " clip-rule="nonzero"/></clipPath><clipPath id="fc11016846"><path d="M 0.484375 11 L 8 11 L 8 18 L 0.484375 18 Z M 0.484375 11 " clip-rule="nonzero"/></clipPath><clipPath id="662b6e5f82"><path d="M 23 15 L 29.515625 15 L 29.515625 22 L 23 22 Z M 23 15 " clip-rule="nonzero"/></clipPath><clipPath id="03a898cf69"><path d="M 23 17 L 29.515625 17 L 29.515625 24 L 23 24 Z M 23 17 " clip-rule="nonzero"/></clipPath><clipPath id="d11456e331"><path d="M 10 3.21875 L 15 3.21875 L 15 8 L 10 8 Z M 10 3.21875 " clip-rule="nonzero"/></clipPath><clipPath id="98e26956a9"><path d="M 10 3.21875 L 14 3.21875 L 14 8 L 10 8 Z M 10 3.21875 " clip-rule="nonzero"/></clipPath><clipPath id="10ba559bcf"><path d="M 19 3.21875 L 24 3.21875 L 24 8 L 19 8 Z M 19 3.21875 " clip-rule="nonzero"/></clipPath><clipPath id="621ad5c47a"><path d="M 20 3.21875 L 24 3.21875 L 24 8 L 20 8 Z M 20 3.21875 " clip-rule="nonzero"/></clipPath><clipPath id="c1192ea84b"><path d="M 7 15 L 26 15 L 26 25.71875 L 7 25.71875 Z M 7 15 " clip-rule="nonzero"/></clipPath><clipPath id="a7c1a85c45"><path d="M 8 16 L 26 16 L 26 25.71875 L 8 25.71875 Z M 8 16 " clip-rule="nonzero"/></clipPath><clipPath id="8845950b80"><path d="M 8 16 L 17 16 L 17 25.71875 L 8 25.71875 Z M 8 16 " clip-rule="nonzero"/></clipPath></defs><path fill="#7eaaba" d="M 3.769531 17.132812 C 5.382812 17.359375 6.785156 16.980469 7.941406 15.960938 L 9.867188 16.070312 L 8.820312 19.128906 C 7.65625 20.96875 5.980469 21.351562 4.25 21.242188 Z M 3.769531 17.132812 " fill-opacity="1" fill-rule="nonzero"/><path fill="#d3e8ef" d="M 4.488281 17.824219 L 4.804688 20.625 C 6.230469 20.613281 7.382812 20.144531 8.246094 18.84375 L 9.007812 16.65625 L 8.15625 16.613281 C 7.078125 17.488281 5.847656 17.871094 4.488281 17.824219 Z M 4.488281 17.824219 " fill-opacity="1" fill-rule="nonzero"/><path fill="#ffffff" d="M 4.488281 17.824219 L 4.683594 19.484375 C 6.65625 19.246094 8.199219 18.445312 8.996094 16.65625 L 8.148438 16.613281 C 7.070312 17.488281 5.839844 17.871094 4.488281 17.824219 Z M 4.488281 17.824219 " fill-opacity="1" fill-rule="nonzero"/><g clip-path="url(#03d88125d5)"><path fill="#7eaaba" d="M 4.238281 14.734375 C 6.046875 14.734375 7.503906 16.1875 7.503906 17.988281 C 7.503906 19.789062 6.046875 21.242188 4.238281 21.242188 C 2.429688 21.242188 0.972656 19.789062 0.972656 17.988281 C 0.972656 16.1875 2.441406 14.734375 4.238281 14.734375 Z M 4.238281 14.734375 " fill-opacity="1" fill-rule="nonzero"/></g><path fill="#d3e8ef" d="M 4.238281 15.363281 C 2.789062 15.363281 1.625 16.535156 1.625 17.96875 C 1.625 19.410156 2.800781 20.570312 4.238281 20.570312 C 5.6875 20.570312 6.851562 19.398438 6.851562 17.96875 C 6.863281 16.523438 5.6875 15.363281 4.238281 15.363281 Z M 4.238281 15.363281 " fill-opacity="1" fill-rule="nonzero"/><path fill="#ffffff" d="M 4.238281 15.363281 C 3.355469 15.363281 2.5625 15.796875 2.09375 16.480469 C 2.179688 17.847656 3.324219 18.933594 4.707031 18.933594 C 5.589844 18.933594 6.382812 18.5 6.851562 17.816406 C 6.773438 16.449219 5.632812 15.363281 4.238281 15.363281 Z M 4.238281 15.363281 " fill-opacity="1" fill-rule="nonzero"/><path fill="#7eaaba" d="M 3.902344 15.203125 C 5.25 15.203125 6.339844 16.285156 6.339844 17.628906 C 6.339844 18.976562 5.25 20.058594 3.902344 20.058594 C 2.550781 20.058594 1.460938 18.976562 1.460938 17.628906 C 1.460938 16.285156 2.550781 15.203125 3.902344 15.203125 Z M 3.902344 15.203125 " fill-opacity="1" fill-rule="nonzero"/><path fill="#7f3e13" d="M 3.726562 14.550781 C 5.078125 14.550781 6.175781 15.644531 6.175781 16.992188 C 6.175781 18.335938 5.078125 19.429688 3.726562 19.429688 C 2.375 19.429688 1.277344 18.335938 1.277344 16.992188 C 1.289062 15.644531 2.386719 14.550781 3.726562 14.550781 Z M 3.726562 14.550781 " fill-opacity="1" fill-rule="nonzero"/><path fill="#b85a1b" d="M 3.964844 15.484375 C 2.886719 15.484375 2.015625 16.351562 2.015625 17.425781 C 2.015625 18.5 2.886719 19.367188 3.964844 19.367188 C 5.042969 19.367188 5.914062 18.5 5.914062 17.425781 C 5.902344 16.351562 5.03125 15.484375 3.964844 15.484375 Z M 3.964844 15.484375 " fill-opacity="1" fill-rule="nonzero"/><g clip-path="url(#fc11016846)"><path fill="#7f3e13" d="M 2.507812 12.578125 C 2.550781 11.210938 4.585938 11.136719 4.640625 12.578125 C 5.238281 11.582031 7.113281 12.132812 6.523438 13.695312 C 6.558594 13.824219 6.578125 13.945312 6.601562 14.0625 C 7.613281 14.117188 7.949219 15.699219 6.558594 16.1875 C 6.4375 16.621094 6.261719 17 6.011719 17.304688 C 4.816406 18.324219 4.433594 17.488281 3.792969 16.796875 C 3.171875 16.816406 1.460938 16.371094 1.941406 17.96875 C 0.851562 17.285156 0.144531 15.886719 0.679688 13.8125 C -0.0625 12.164062 1.886719 11.546875 2.507812 12.578125 Z M 2.507812 12.578125 " fill-opacity="1" fill-rule="nonzero"/></g><path fill="#b85a1b" d="M 1.332031 14.0625 C 1.070312 15.0625 1.058594 16.1875 1.777344 17 C 2.777344 18.140625 4.816406 18.085938 5.589844 16.65625 C 6 15.875 5.980469 14.910156 5.804688 14.0625 C 4.3125 13.726562 2.800781 13.78125 1.332031 14.0625 Z M 1.332031 14.0625 " fill-opacity="1" fill-rule="nonzero"/><path fill="#e1762f" d="M 1.332031 14.0625 C 1.070312 15.0625 1.058594 16.1875 1.777344 17 C 2.234375 17.523438 2.898438 17.792969 3.574219 17.804688 L 3.574219 13.824219 C 2.824219 13.835938 2.070312 13.921875 1.332031 14.0625 Z M 1.332031 14.0625 " fill-opacity="1" fill-rule="nonzero"/><path fill="#7f3e13" d="M 2.3125 14.824219 C 2.167969 15.375 2.160156 16.015625 2.574219 16.460938 C 3.128906 17.097656 4.261719 17.066406 4.695312 16.253906 C 4.933594 15.820312 4.925781 15.289062 4.816406 14.8125 C 3.988281 14.636719 3.128906 14.671875 2.3125 14.824219 Z M 2.3125 14.824219 " fill-opacity="1" fill-rule="nonzero"/><path fill="#b85a1b" d="M 5.609375 12.578125 C 5.914062 12.578125 6.175781 12.839844 6.175781 13.140625 C 6.175781 13.445312 5.914062 13.707031 5.609375 13.707031 C 5.304688 13.707031 5.042969 13.445312 5.042969 13.140625 C 5.042969 12.839844 5.304688 12.578125 5.609375 12.578125 Z M 3.5625 13.292969 C 3.867188 13.292969 4.128906 13.03125 4.128906 12.730469 C 4.128906 12.425781 3.867188 12.164062 3.5625 12.164062 Z M 3.5625 13.292969 " fill-opacity="1" fill-rule="nonzero"/><path fill="#e1762f" d="M 3.5625 13.292969 L 3.5625 12.175781 C 3.257812 12.175781 2.996094 12.4375 2.996094 12.742188 C 2.996094 13.054688 3.246094 13.304688 3.5625 13.292969 Z M 1.625 12.644531 C 1.929688 12.644531 2.191406 12.902344 2.191406 13.207031 C 2.191406 13.511719 1.929688 13.769531 1.625 13.769531 C 1.320312 13.769531 1.058594 13.511719 1.058594 13.207031 C 1.058594 12.902344 1.320312 12.644531 1.625 12.644531 Z M 1.625 12.644531 " fill-opacity="1" fill-rule="nonzero"/><path fill="#b85a1b" d="M 6.242188 14.628906 C 6.546875 14.628906 6.808594 14.886719 6.808594 15.191406 C 6.808594 15.496094 6.546875 15.753906 6.242188 15.753906 C 5.9375 15.753906 5.675781 15.496094 5.675781 15.191406 C 5.675781 14.875 5.925781 14.628906 6.242188 14.628906 Z M 6.242188 14.628906 " fill-opacity="1" fill-rule="nonzero"/><g clip-path="url(#662b6e5f82)"><path fill="#7eaaba" d="M 25.664062 21.285156 C 25.535156 19.59375 24.769531 18.378906 23.246094 17.71875 L 23.539062 16.546875 L 25.980469 15.894531 C 28.101562 16.535156 28.941406 17.878906 29.34375 19.582031 Z M 25.664062 21.285156 " fill-opacity="1" fill-rule="nonzero"/></g><path fill="#ffffff" d="M 26.175781 20.351562 L 28.601562 19.226562 C 28.179688 17.816406 27.472656 16.894531 25.980469 16.535156 L 24.074219 17.046875 L 23.988281 17.359375 C 25.164062 18.042969 25.871094 19.0625 26.175781 20.351562 Z M 26.175781 20.351562 " fill-opacity="1" fill-rule="nonzero"/><g clip-path="url(#03a898cf69)"><path fill="#7eaaba" d="M 23.324219 21.566406 C 22.777344 19.90625 23.671875 18.117188 25.335938 17.578125 C 27.003906 17.035156 28.800781 17.921875 29.34375 19.582031 C 29.886719 21.242188 28.996094 23.03125 27.328125 23.574219 C 25.652344 24.125 23.867188 23.226562 23.324219 21.566406 Z M 23.324219 21.566406 " fill-opacity="1" fill-rule="nonzero"/></g><path fill="#d3e8ef" d="M 23.847656 21.394531 C 24.292969 22.769531 25.785156 23.507812 27.15625 23.050781 C 28.539062 22.609375 29.277344 21.121094 28.820312 19.757812 C 28.375 18.378906 26.882812 17.640625 25.511719 18.097656 C 24.128906 18.542969 23.378906 20.015625 23.847656 21.394531 Z M 23.847656 21.394531 " fill-opacity="1" fill-rule="nonzero"/><path fill="#ffffff" d="M 28.929688 20.222656 C 28.910156 20.058594 28.875 19.917969 28.820312 19.757812 C 28.375 18.378906 26.882812 17.640625 25.511719 18.097656 C 25.085938 18.238281 24.714844 18.464844 24.445312 18.769531 C 24.464844 18.933594 24.5 19.074219 24.554688 19.234375 C 25.011719 20.613281 26.492188 21.351562 27.863281 20.894531 C 28.289062 20.753906 28.648438 20.515625 28.929688 20.222656 Z M 28.929688 20.222656 " fill-opacity="1" fill-rule="nonzero"/><path fill="#7f3e13" d="M 22.722656 22.378906 C 22.203125 20.820312 23.050781 19.128906 24.628906 18.617188 C 26.199219 18.097656 27.894531 18.941406 28.40625 20.515625 C 28.929688 22.078125 28.082031 23.769531 26.503906 24.277344 C 24.933594 24.796875 23.234375 23.941406 22.722656 22.378906 Z M 22.722656 22.378906 " fill-opacity="1" fill-rule="nonzero"/><path fill="#b85a1b" d="M 23.335938 22.183594 C 22.929688 20.949219 23.605469 19.636719 24.824219 19.226562 C 26.066406 18.824219 27.382812 19.496094 27.796875 20.710938 C 28.199219 21.945312 27.527344 23.257812 26.304688 23.671875 C 25.066406 24.082031 23.738281 23.410156 23.335938 22.183594 Z M 23.335938 22.183594 " fill-opacity="1" fill-rule="nonzero"/><path fill="#e1762f" d="M 23.234375 21.078125 C 23.378906 20.234375 23.964844 19.507812 24.824219 19.214844 C 26.066406 18.8125 27.382812 19.484375 27.796875 20.699219 C 27.863281 20.894531 27.90625 21.089844 27.917969 21.285156 C 26.394531 22.25 24.410156 22.03125 23.234375 21.078125 Z M 23.234375 21.078125 " fill-opacity="1" fill-rule="nonzero"/><g clip-path="url(#d11456e331)"><path fill="#7f3e13" d="M 12.371094 3.21875 C 13.566406 3.21875 14.527344 4.238281 14.527344 5.496094 C 14.527344 6.753906 13.566406 7.773438 12.371094 7.773438 C 11.171875 7.773438 10.214844 6.753906 10.214844 5.496094 C 10.214844 4.238281 11.171875 3.21875 12.371094 3.21875 Z M 12.371094 3.21875 " fill-opacity="1" fill-rule="nonzero"/></g><g clip-path="url(#98e26956a9)"><path fill="#b85a1b" d="M 12.371094 3.847656 C 11.488281 3.847656 10.847656 4.640625 10.847656 5.496094 C 10.847656 6.34375 11.488281 7.144531 12.371094 7.144531 C 13.253906 7.144531 13.894531 6.355469 13.894531 5.496094 C 13.894531 4.640625 13.253906 3.847656 12.371094 3.847656 Z M 12.371094 3.847656 " fill-opacity="1" fill-rule="nonzero"/></g><path fill="#63300f" d="M 12.371094 4.476562 C 11.828125 4.476562 11.476562 4.988281 11.476562 5.496094 C 11.476562 5.996094 11.835938 6.515625 12.371094 6.515625 C 12.914062 6.515625 13.261719 6.007812 13.261719 5.496094 C 13.261719 5 12.902344 4.476562 12.371094 4.476562 Z M 12.371094 4.476562 " fill-opacity="1" fill-rule="nonzero"/><g clip-path="url(#10ba559bcf)"><path fill="#7f3e13" d="M 21.546875 3.21875 C 22.746094 3.21875 23.703125 4.238281 23.703125 5.496094 C 23.703125 6.753906 22.746094 7.773438 21.546875 7.773438 C 20.351562 7.773438 19.394531 6.753906 19.394531 5.496094 C 19.394531 4.238281 20.351562 3.21875 21.546875 3.21875 Z M 21.546875 3.21875 " fill-opacity="1" fill-rule="nonzero"/></g><g clip-path="url(#621ad5c47a)"><path fill="#b85a1b" d="M 21.546875 3.847656 C 20.667969 3.847656 20.023438 4.640625 20.023438 5.496094 C 20.023438 6.34375 20.667969 7.144531 21.546875 7.144531 C 22.429688 7.144531 23.074219 6.355469 23.074219 5.496094 C 23.074219 4.640625 22.429688 3.847656 21.546875 3.847656 Z M 21.546875 3.847656 " fill-opacity="1" fill-rule="nonzero"/></g><path fill="#4f2800" d="M 21.546875 4.476562 C 21.003906 4.476562 20.65625 4.988281 20.65625 5.496094 C 20.65625 5.996094 21.015625 6.515625 21.546875 6.515625 C 22.09375 6.515625 22.441406 6.007812 22.441406 5.496094 C 22.441406 5 22.082031 4.476562 21.546875 4.476562 Z M 21.546875 4.476562 " fill-opacity="1" fill-rule="nonzero"/><path fill="#7f3e13" d="M 16.082031 4.28125 C 16.453125 4.28125 16.769531 4.585938 16.769531 4.964844 C 16.769531 5.335938 16.464844 5.648438 16.082031 5.648438 C 15.714844 5.648438 15.398438 5.34375 15.398438 4.964844 C 15.410156 4.597656 15.714844 4.28125 16.082031 4.28125 Z M 17.824219 4.28125 C 18.195312 4.28125 18.511719 4.585938 18.511719 4.964844 C 18.511719 5.335938 18.207031 5.648438 17.824219 5.648438 C 17.453125 5.648438 17.140625 5.34375 17.140625 4.964844 C 17.148438 4.597656 17.453125 4.28125 17.824219 4.28125 Z M 17.824219 4.28125 " fill-opacity="1" fill-rule="nonzero"/><path fill="#7f3e13" d="M 24.933594 7.125 L 24.933594 11.351562 L 24.976562 11.363281 C 25.597656 11.613281 25.992188 12.175781 25.992188 12.839844 L 25.992188 15.886719 L 16.964844 18.855469 L 7.941406 15.960938 L 7.941406 12.847656 C 7.941406 12.175781 8.332031 11.613281 8.953125 11.375 L 8.996094 11.363281 L 8.996094 7.113281 C 8.996094 4.183594 24.933594 4.183594 24.933594 7.125 Z M 24.933594 7.125 " fill-opacity="1" fill-rule="nonzero"/><path fill="#b85a1b" d="M 9.714844 7.285156 L 9.714844 11.851562 L 9.34375 12.003906 C 8.929688 12.164062 8.667969 12.546875 8.667969 12.988281 L 8.667969 16.199219 L 16.964844 18.855469 L 25.261719 16.132812 L 25.261719 12.988281 C 25.261719 12.546875 25 12.164062 24.585938 12.003906 L 24.214844 11.851562 L 24.214844 7.285156 C 24.214844 5.117188 9.726562 5.117188 9.714844 7.285156 Z M 9.714844 7.285156 " fill-opacity="1" fill-rule="nonzero"/><path fill="#e1762f" d="M 9.714844 7.285156 L 9.714844 11.851562 L 9.34375 12.003906 C 8.929688 12.164062 8.667969 12.546875 8.667969 12.988281 L 8.667969 16.199219 L 16.964844 18.855469 L 16.964844 17.109375 C 14.089844 17.121094 11.214844 15.246094 11.980469 11.535156 L 16.964844 11.535156 L 16.964844 5.671875 C 13.339844 5.671875 9.714844 6.210938 9.714844 7.285156 Z M 9.714844 7.285156 " fill-opacity="1" fill-rule="nonzero"/><path fill="#e5895b" d="M 11.574219 10.570312 L 22.363281 10.570312 C 23.898438 18.640625 9.933594 18.574219 11.574219 10.570312 Z M 11.574219 10.570312 " fill-opacity="1" fill-rule="nonzero"/><path fill="#e5895b" d="M 12.109375 11.199219 C 11.957031 12.449219 12.230469 13.652344 13.15625 14.582031 C 14.132812 15.558594 15.625 15.984375 16.988281 15.984375 C 18.304688 15.972656 19.699219 15.558594 20.667969 14.628906 C 21.636719 13.695312 21.941406 12.480469 21.808594 11.199219 Z M 12.109375 11.199219 " fill-opacity="1" fill-rule="nonzero"/><path fill="#fad395" d="M 18.773438 14.964844 C 19.5 15.894531 21.613281 15.515625 20.984375 13.542969 Z M 18.773438 14.964844 " fill-opacity="1" fill-rule="nonzero"/><path fill="#4f2800" d="M 18.109375 14.757812 C 18.925781 15.796875 21.570312 15.179688 20.960938 12.925781 Z M 18.109375 14.757812 " fill-opacity="1" fill-rule="nonzero"/><path fill="#ffffff" d="M 18.816406 14.214844 C 18.980469 14.171875 19.132812 14.28125 19.1875 14.453125 C 19.230469 14.628906 19.140625 14.800781 18.980469 14.84375 C 18.816406 14.886719 18.664062 14.777344 18.609375 14.605469 C 18.566406 14.441406 18.652344 14.257812 18.816406 14.214844 Z M 20.546875 13.03125 C 20.710938 12.988281 20.875 13.097656 20.917969 13.273438 C 20.960938 13.445312 20.875 13.617188 20.710938 13.664062 C 20.546875 13.707031 20.382812 13.597656 20.339844 13.421875 C 20.296875 13.25 20.382812 13.066406 20.546875 13.03125 Z M 20.546875 13.03125 " fill-opacity="1" fill-rule="nonzero"/><path fill="#ad6151" d="M 19.882812 15.160156 C 20.460938 14.964844 20.960938 14.507812 21.046875 13.769531 C 20.570312 13.707031 19.761719 14.386719 19.882812 15.160156 Z M 19.882812 15.160156 " fill-opacity="1" fill-rule="nonzero"/><path fill="#fad395" d="M 12.6875 10.570312 L 21.242188 10.570312 C 22.453125 16.328125 11.390625 16.273438 12.6875 10.570312 Z M 12.6875 10.570312 " fill-opacity="1" fill-rule="nonzero"/><path fill="#4f2800" d="M 16.964844 13.847656 C 17.019531 13.5 17.148438 13.175781 17.367188 12.890625 C 18.390625 12.730469 19.285156 11.960938 19 10.5625 C 18.324219 10.324219 17.640625 10.214844 16.976562 10.214844 L 16.5625 11.535156 Z M 16.964844 13.847656 " fill-opacity="1" fill-rule="nonzero"/><path fill="#63300f" d="M 16.964844 13.847656 C 16.910156 13.5 16.78125 13.175781 16.5625 12.890625 C 15.539062 12.730469 14.644531 11.960938 14.929688 10.5625 C 15.605469 10.324219 16.289062 10.214844 16.953125 10.214844 Z M 16.964844 13.847656 " fill-opacity="1" fill-rule="nonzero"/><path fill="#ad6151" d="M 15.453125 10.765625 C 16.464844 10.496094 17.464844 10.496094 18.488281 10.765625 C 18.902344 11.820312 14.984375 11.808594 15.453125 10.765625 Z M 15.453125 10.765625 " fill-opacity="1" fill-rule="nonzero"/><path fill="#ffffff" d="M 15.332031 7.839844 C 15.964844 7.839844 16.476562 8.347656 16.476562 8.976562 C 16.476562 9.605469 15.964844 10.117188 15.332031 10.117188 C 14.699219 10.117188 14.1875 9.605469 14.1875 8.976562 C 14.1875 8.347656 14.699219 7.839844 15.332031 7.839844 Z M 15.332031 7.839844 " fill-opacity="1" fill-rule="nonzero"/><path fill="#1b1d23" d="M 15.417969 8.230469 C 15.886719 8.230469 16.269531 8.609375 16.269531 9.074219 C 16.269531 9.542969 15.886719 9.921875 15.417969 9.921875 C 14.949219 9.921875 14.570312 9.542969 14.570312 9.074219 C 14.558594 8.609375 14.941406 8.230469 15.417969 8.230469 Z M 15.417969 8.230469 " fill-opacity="1" fill-rule="nonzero"/><path fill="#ffffff" d="M 18.621094 7.839844 C 17.988281 7.839844 17.476562 8.347656 17.476562 8.976562 C 17.476562 9.605469 17.988281 10.117188 18.621094 10.117188 C 19.25 10.117188 19.761719 9.605469 19.761719 8.976562 C 19.761719 8.347656 19.25 7.839844 18.621094 7.839844 Z M 18.621094 7.839844 " fill-opacity="1" fill-rule="nonzero"/><path fill="#1b1d23" d="M 18.53125 8.230469 C 18.066406 8.230469 17.683594 8.609375 17.683594 9.074219 C 17.683594 9.542969 18.066406 9.921875 18.53125 9.921875 C 19 9.921875 19.382812 9.542969 19.382812 9.074219 C 19.394531 8.609375 19 8.230469 18.53125 8.230469 Z M 18.53125 8.230469 " fill-opacity="1" fill-rule="nonzero"/><path fill="#63300f" d="M 16.160156 7.460938 C 15.253906 7.285156 14.472656 7.449219 13.785156 7.871094 C 13.546875 6.484375 15.910156 6.070312 16.160156 7.460938 Z M 16.160156 7.460938 " fill-opacity="1" fill-rule="nonzero"/><path fill="#4f2800" d="M 17.554688 6.765625 C 18.457031 6.59375 19.242188 6.753906 19.925781 7.179688 C 20.164062 5.777344 17.804688 5.367188 17.554688 6.765625 Z M 17.554688 6.765625 " fill-opacity="1" fill-rule="nonzero"/><g clip-path="url(#c1192ea84b)"><path fill="#7eaaba" d="M 25.980469 15.894531 L 25.980469 24.644531 C 25.980469 25.230469 25.5 25.710938 24.914062 25.710938 L 8.996094 25.710938 C 8.40625 25.710938 7.929688 25.230469 7.929688 24.644531 L 7.929688 15.960938 L 16.953125 18.109375 Z M 25.980469 15.894531 " fill-opacity="1" fill-rule="nonzero"/></g><g clip-path="url(#a7c1a85c45)"><path fill="#d3e8ef" d="M 25.261719 16.816406 L 16.964844 18.855469 L 8.660156 16.882812 L 8.660156 24.472656 C 8.660156 24.765625 8.898438 25.003906 9.191406 25.003906 L 24.726562 25.003906 C 25.023438 25.003906 25.261719 24.765625 25.261719 24.472656 Z M 25.261719 16.816406 " fill-opacity="1" fill-rule="nonzero"/></g><g clip-path="url(#8845950b80)"><path fill="#ffffff" d="M 16.964844 18.855469 L 8.667969 16.882812 L 8.667969 24.472656 C 8.667969 24.765625 8.910156 25.003906 9.203125 25.003906 L 16.964844 25.003906 Z M 16.964844 18.855469 " fill-opacity="1" fill-rule="nonzero"/></g><path fill="#036aab" d="M 16.964844 21.003906 L 23.945312 21.003906 L 23.945312 21.9375 L 16.964844 21.9375 Z M 16.964844 22.933594 L 23.945312 22.933594 L 23.945312 23.867188 L 16.964844 23.867188 Z M 16.964844 22.933594 " fill-opacity="1" fill-rule="nonzero"/><path fill="#0399ed" d="M 9.988281 21.003906 L 16.964844 21.003906 L 16.964844 21.9375 L 9.988281 21.9375 Z M 16.964844 23.867188 L 16.964844 22.933594 L 9.988281 22.933594 L 9.988281 23.867188 Z M 16.964844 23.867188 " fill-opacity="1" fill-rule="nonzero"/><path fill="#ffffff" d="M 12.816406 20.394531 L 13.699219 20.394531 L 13.699219 24.644531 L 12.816406 24.644531 Z M 12.816406 20.394531 " fill-opacity="1" fill-rule="nonzero"/><path fill="#7eaaba" d="M 10.367188 16.546875 C 12.566406 17.066406 14.765625 17.597656 16.953125 18.117188 L 14.601562 20.332031 C 13.078125 19.441406 11.566406 18.453125 10.367188 16.546875 Z M 10.367188 16.546875 " fill-opacity="1" fill-rule="nonzero"/><path fill="#ffffff" d="M 12.230469 17.726562 C 12.902344 18.390625 13.644531 18.921875 14.503906 19.441406 L 15.496094 18.507812 C 14.40625 18.25 13.316406 17.988281 12.230469 17.726562 Z M 12.230469 17.726562 " fill-opacity="1" fill-rule="nonzero"/><path fill="#7eaaba" d="M 23.550781 16.546875 C 21.351562 17.066406 19.152344 17.597656 16.964844 18.117188 L 19.316406 20.332031 C 20.839844 19.441406 22.34375 18.453125 23.550781 16.546875 Z M 23.550781 16.546875 " fill-opacity="1" fill-rule="nonzero"/><path fill="#ffffff" d="M 21.679688 17.726562 C 21.003906 18.390625 20.265625 18.921875 19.402344 19.441406 L 18.414062 18.507812 C 19.5 18.25 20.589844 17.988281 21.679688 17.726562 Z M 21.679688 17.726562 " fill-opacity="1" fill-rule="nonzero"/></svg>